<?xml version="1.0" encoding="UTF-8" standalone="no"?>
<svg width="500mm" height="500mm" viewBox="0 0 500 500" version="1.1" id="svg5" xmlns="http://www.w3.org/2000/svg" xmlns:svg="http://www.w3.org/2000/svg">
<g id="checkers">
<rect width="56" height="56" x="26" y="26"></rect>
<rect width="56" height="56" x="138" y="26"></rect>
<rect width="56" height="56" x="250" y="26"></rect>
<rect width="56" height="56" x="362" y="26"></rect>
<rect width="56" height="56" x="82" y="82"></rect>
<rect width="56" height="56" x="194" y="82"></rect>
<rect width="56" height="56" x="306" y="82"></rect>
<rect width="56" height="56" x="418" y="82"></rect>
<rect width="56" height="56" x="26" y="138"></rect>
<rect width="56" height="56" x="138" y="138"></rect>
<rect width="56" height="56" x="250" y="138"></rect>
<rect width="56" height="56" x="362" y="138"></rect>
<rect width="56" height="56" x="82" y="194"></rect>
<rect width="56" height="56" x="194" y="194"></rect>
<rect width="56" height="56" x="306" y="194"></rect>
<rect width="56" height="56" x="418" y="194"></rect>
<rect width="56" height="56" x="26" y="250"></rect>
<rect width="56" height="56" x="138" y="250"></rect>
<rect width="56" height="56" x="250" y="250"></rect>
<rect width="56" height="56" x="362" y="250"></rect>
<rect width="56" height="56" x="82" y="306"></rect>
<rect width="56" height="56" x="194" y="306"></rect>
<rect width="56" height="56" x="306" y="306"></rect>
<rect width="56" height="56" x="418" y="306"></rect>
<rect width="56" height="56" x="26" y="362"></rect>
<rect width="56" height="56" x="138" y="362"></rect>
<rect width="56" height="56" x="250" y="362"></rect>
<rect width="56" height="56" x="362" y="362"></rect>
<rect width="56" height="56" x="82" y="418"></rect>
<rect width="56" height="56" x="194" y="418"></rect>
<rect width="56" height="56" x="306" y="418"></rect>
<rect width="56" height="56" x="418" y="418"></rect>

</g>
</svg>
